<?xml version="1.0" encoding="UTF-8" standalone="no"?>
<!DOCTYPE svg PUBLIC "-//W3C//DTD SVG 1.1//EN" "http://www.w3.org/Graphics/SVG/1.1/DTD/svg11.dtd">
<svg width="100%" height="100%" viewBox="0 0 2000 2000" version="1.1" xmlns="http://www.w3.org/2000/svg" xmlns:xlink="http://www.w3.org/1999/xlink" xml:space="preserve" xmlns:serif="http://www.serif.com/" style="fill-rule:evenodd;clip-rule:evenodd;stroke-linejoin:round;stroke-miterlimit:2;">
    <g transform="matrix(1,0,0,1,0,-2100)">
        <g id="Vertical-Preferencial" serif:id="Vertical Preferencial" transform="matrix(1,0,0,1,0,2100)">
            <rect x="0" y="0" width="2000" height="2000" style="fill:white;"/>
            <g transform="matrix(1.1005,0,0,1.1005,-100.502,32.9341)">
                <g transform="matrix(0.216532,0,0,0.216532,-443.787,1182.51)">
                    <path d="M4532.75,723.9C4531.53,740.73 4525.3,753.979 4514.06,763.646C4502.88,773.314 4488.13,778.148 4469.8,778.148C4449.75,778.148 4433.96,771.417 4422.43,757.953C4410.97,744.418 4405.24,725.87 4405.24,702.309L4405.24,692.748C4405.24,677.709 4407.89,664.46 4413.19,653.002C4418.49,641.544 4426.04,632.771 4435.85,626.684C4445.74,620.525 4457.19,617.445 4470.23,617.445C4488.28,617.445 4502.81,622.279 4513.84,631.947C4524.87,641.615 4531.24,655.186 4532.96,672.66L4500.74,672.66C4499.95,662.562 4497.12,655.258 4492.25,650.746C4487.45,646.163 4480.11,643.871 4470.23,643.871C4459.49,643.871 4451.43,647.738 4446.06,655.473C4440.76,663.135 4438.04,675.059 4437.89,691.244L4437.89,703.061C4437.89,719.962 4440.44,732.315 4445.52,740.121C4450.68,747.927 4458.77,751.83 4469.8,751.83C4479.75,751.83 4487.17,749.574 4492.04,745.062C4496.98,740.479 4499.81,733.425 4500.52,723.9L4532.75,723.9ZM4772.59,701.342C4772.59,716.739 4769.87,730.238 4764.42,741.84C4758.98,753.441 4751.17,762.393 4741,768.695C4730.91,774.997 4719.31,778.148 4706.2,778.148C4693.24,778.148 4681.67,775.033 4671.5,768.803C4661.33,762.572 4653.46,753.692 4647.87,742.162C4642.28,730.561 4639.46,717.24 4639.38,702.201L4639.38,694.467C4639.38,679.07 4642.14,665.535 4647.66,653.861C4653.24,642.117 4661.08,633.129 4671.18,626.898C4681.35,620.596 4692.95,617.445 4705.99,617.445C4719.02,617.445 4730.58,620.596 4740.68,626.898C4750.85,633.129 4758.69,642.117 4764.21,653.861C4769.79,665.535 4772.59,679.034 4772.59,694.359L4772.59,701.342ZM4739.93,694.252C4739.93,677.852 4736.99,665.391 4731.12,656.869C4725.25,648.347 4716.87,644.086 4705.99,644.086C4695.17,644.086 4686.83,648.311 4680.96,656.762C4675.08,665.141 4672.11,677.458 4672.04,693.715L4672.04,701.342C4672.04,717.312 4674.98,729.701 4680.85,738.51C4686.72,747.318 4695.17,751.723 4706.2,751.723C4717.01,751.723 4725.32,747.497 4731.12,739.047C4736.92,730.525 4739.86,718.135 4739.93,701.879L4739.93,694.252ZM5013.39,776L4981.17,776L4918.43,673.09L4918.43,776L4886.2,776L4886.2,619.594L4918.43,619.594L4981.27,722.719L4981.27,619.594L5013.39,619.594L5013.39,776ZM5212.84,734.965C5212.84,728.878 5210.69,724.223 5206.39,721C5202.1,717.706 5194.36,714.268 5183.19,710.688C5172.02,707.035 5163.18,703.454 5156.66,699.945C5138.9,690.349 5130.02,677.423 5130.02,661.166C5130.02,652.715 5132.38,645.196 5137.11,638.607C5141.91,631.947 5148.75,626.755 5157.63,623.031C5166.58,619.307 5176.6,617.445 5187.7,617.445C5198.88,617.445 5208.83,619.486 5217.57,623.568C5226.3,627.579 5233.07,633.272 5237.87,640.648C5242.74,648.025 5245.17,656.404 5245.17,665.785L5212.95,665.785C5212.95,658.624 5210.69,653.074 5206.18,649.135C5201.67,645.124 5195.33,643.119 5187.17,643.119C5179.29,643.119 5173.17,644.802 5168.8,648.168C5164.43,651.462 5162.24,655.831 5162.24,661.273C5162.24,666.358 5164.79,670.619 5169.87,674.057C5175.03,677.494 5182.58,680.717 5192.54,683.725C5210.87,689.239 5224.23,696.078 5232.61,704.242C5240.98,712.406 5245.17,722.576 5245.17,734.75C5245.17,748.285 5240.05,758.92 5229.81,766.654C5219.57,774.317 5205.79,778.148 5188.46,778.148C5176.42,778.148 5165.47,775.964 5155.58,771.596C5145.7,767.156 5138.15,761.104 5132.92,753.441C5127.76,745.779 5125.18,736.898 5125.18,726.801L5157.52,726.801C5157.52,744.06 5167.83,752.689 5188.46,752.689C5196.12,752.689 5202.1,751.15 5206.39,748.07C5210.69,744.919 5212.84,740.551 5212.84,734.965ZM5475.67,619.594L5475.67,722.611C5475.67,739.727 5470.3,753.262 5459.55,763.217C5448.88,773.171 5434.27,778.148 5415.73,778.148C5397.46,778.148 5382.96,773.314 5372.22,763.646C5361.48,753.979 5356,740.694 5355.78,723.793L5355.78,619.594L5388.01,619.594L5388.01,722.826C5388.01,733.067 5390.45,740.551 5395.32,745.277C5400.26,749.932 5407.06,752.26 5415.73,752.26C5433.84,752.26 5443.05,742.735 5443.33,723.686L5443.33,619.594L5475.67,619.594ZM5624.52,750.111L5692.95,750.111L5692.95,776L5592.29,776L5592.29,619.594L5624.52,619.594L5624.52,750.111ZM5897.34,645.697L5849.43,645.697L5849.43,776L5817.2,776L5817.2,645.697L5769.93,645.697L5769.93,619.594L5897.34,619.594L5897.34,645.697ZM6131.48,701.342C6131.48,716.739 6128.76,730.238 6123.32,741.84C6117.88,753.441 6110.07,762.393 6099.9,768.695C6089.8,774.997 6078.2,778.148 6065.1,778.148C6052.13,778.148 6040.57,775.033 6030.4,768.803C6020.23,762.572 6012.35,753.692 6006.77,742.162C6001.18,730.561 5998.35,717.24 5998.28,702.201L5998.28,694.467C5998.28,679.07 6001.04,665.535 6006.55,653.861C6012.14,642.117 6019.98,633.129 6030.08,626.898C6040.25,620.596 6051.85,617.445 6064.88,617.445C6077.91,617.445 6089.48,620.596 6099.58,626.898C6109.75,633.129 6117.59,642.117 6123.1,653.861C6128.69,665.535 6131.48,679.034 6131.48,694.359L6131.48,701.342ZM6098.83,694.252C6098.83,677.852 6095.89,665.391 6090.02,656.869C6084.14,648.347 6075.77,644.086 6064.88,644.086C6054.07,644.086 6045.72,648.311 6039.85,656.762C6033.98,665.141 6031.01,677.458 6030.94,693.715L6030.94,701.342C6030.94,717.312 6033.87,729.701 6039.74,738.51C6045.62,747.318 6054.07,751.723 6065.1,751.723C6075.91,751.723 6084.22,747.497 6090.02,739.047C6095.82,730.525 6098.75,718.135 6098.83,701.879L6098.83,694.252ZM6303,718.744L6277.33,718.744L6277.33,776L6245.1,776L6245.1,619.594L6303.22,619.594C6321.69,619.594 6335.94,623.712 6345.97,631.947C6356,640.183 6361.01,651.82 6361.01,666.859C6361.01,677.53 6358.68,686.446 6354.03,693.607C6349.44,700.697 6342.46,706.355 6333.08,710.58L6366.92,774.496L6366.92,776L6332.33,776L6303,718.744ZM6277.33,692.641L6303.32,692.641C6311.42,692.641 6317.68,690.6 6322.12,686.518C6326.56,682.364 6328.78,676.671 6328.78,669.438C6328.78,662.061 6326.67,656.26 6322.44,652.035C6318.29,647.81 6311.88,645.697 6303.22,645.697L6277.33,645.697L6277.33,692.641ZM6510.08,776L6477.85,776L6477.85,619.594L6510.08,619.594L6510.08,776ZM6720.48,743.773L6663.98,743.773L6653.23,776L6618.97,776L6677.19,619.594L6707.05,619.594L6765.6,776L6731.33,776L6720.48,743.773ZM6672.68,717.67L6711.78,717.67L6692.12,659.125L6672.68,717.67ZM7103.69,743.773L7047.19,743.773L7036.45,776L7002.18,776L7060.4,619.594L7090.27,619.594L7148.81,776L7114.54,776L7103.69,743.773ZM7055.89,717.67L7094.99,717.67L7075.33,659.125L7055.89,717.67ZM7295.73,619.594L7335.9,733.031L7375.87,619.594L7418.19,619.594L7418.19,776L7385.86,776L7385.86,733.246L7389.08,659.447L7346.86,776L7324.73,776L7282.62,659.555L7285.85,733.246L7285.85,776L7253.62,776L7253.62,619.594L7295.73,619.594ZM7536.53,776L7536.53,619.594L7591.32,619.594C7610.3,619.594 7624.69,623.246 7634.5,630.551C7644.31,637.784 7649.22,648.419 7649.22,662.455C7649.22,670.118 7647.25,676.885 7643.31,682.758C7639.37,688.559 7633.89,692.82 7626.88,695.541C7634.9,697.546 7641.2,701.592 7645.78,707.68C7650.44,713.767 7652.76,721.215 7652.76,730.023C7652.76,745.062 7647.97,756.449 7638.37,764.184C7628.77,771.918 7615.1,775.857 7597.34,776L7536.53,776ZM7568.76,707.895L7568.76,750.111L7596.37,750.111C7603.96,750.111 7609.87,748.321 7614.09,744.74C7618.39,741.088 7620.54,736.075 7620.54,729.701C7620.54,715.378 7613.13,708.109 7598.3,707.895L7568.76,707.895ZM7568.76,685.121L7592.61,685.121C7608.87,684.835 7616.99,678.354 7616.99,665.678C7616.99,658.588 7614.92,653.503 7610.76,650.424C7606.68,647.273 7600.2,645.697 7591.32,645.697L7568.76,645.697L7568.76,685.121ZM7801.51,776L7769.28,776L7769.28,619.594L7801.51,619.594L7801.51,776ZM8015.78,708.217L7953.91,708.217L7953.91,750.111L8026.52,750.111L8026.52,776L7921.68,776L7921.68,619.594L8026.31,619.594L8026.31,645.697L7953.91,645.697L7953.91,682.973L8015.78,682.973L8015.78,708.217ZM8262.82,776L8230.59,776L8167.86,673.09L8167.86,776L8135.63,776L8135.63,619.594L8167.86,619.594L8230.7,722.719L8230.7,619.594L8262.82,619.594L8262.82,776ZM8495.67,645.697L8447.76,645.697L8447.76,776L8415.54,776L8415.54,645.697L8368.27,645.697L8368.27,619.594L8495.67,619.594L8495.67,645.697ZM8679.76,743.773L8623.26,743.773L8612.51,776L8578.25,776L8636.47,619.594L8666.33,619.594L8724.88,776L8690.61,776L8679.76,743.773ZM8631.96,717.67L8671.06,717.67L8651.4,659.125L8631.96,717.67ZM8861.91,750.111L8930.34,750.111L8930.34,776L8829.69,776L8829.69,619.594L8861.91,619.594L8861.91,750.111Z" style="fill:rgb(13,123,60);fill-rule:nonzero;"/>
                </g>
                <g transform="matrix(0.306121,0,0,0.306121,298.371,168.949)">
                    <path d="M2191.71,781.235C1613.06,846.559 1302.11,1519.29 1622.89,2011.86C2023.53,2627.05 2973.85,2412.67 3081.56,1682.81C3157.12,1170.8 2714.39,722.234 2191.71,781.235ZM2226.77,846.62C2235.68,855.544 2236.88,898.897 2228.7,916.848C2221.26,933.18 2205.18,932.434 2177.17,914.46C2126.13,881.701 2126.44,853.099 2177.95,844.553C2215.37,838.343 2218.62,838.48 2226.77,846.62ZM2324.58,844.332C2337.46,851.221 2353.73,888.855 2350.1,903.333C2342.94,931.863 2303.14,903.252 2296.96,865.128C2293.18,841.84 2304.3,833.473 2324.58,844.332ZM2505.49,881.951C2505.49,896.311 2491.66,899.723 2479.19,888.44C2462.24,873.094 2470.4,861.268 2493.69,867.436C2502.16,869.677 2505.49,873.778 2505.49,881.951ZM2068.11,897.575C2066.24,916.673 2051.81,920.576 2047.44,903.163C2043.89,889.02 2052.29,876.26 2062.55,880.2C2067.14,881.96 2069.05,887.935 2068.11,897.575ZM2423.4,887.732C2453.2,907.754 2458.01,990.558 2430.68,1013.24C2411.82,1028.89 2370.75,954.632 2382.6,926.276C2386.61,916.687 2389.89,903.082 2389.89,896.046C2389.89,873.636 2399.04,871.362 2423.4,887.732ZM2012.96,914.71C2014.66,921.198 2020.54,940.707 2026.02,958.063C2038.83,998.561 2038.72,999.651 2021.7,999.651C1982.77,999.651 1962.84,978.991 1966.36,942.287C1970.04,904.017 2004.79,883.452 2012.96,914.71ZM2601.38,916.116C2603.48,927.14 2594.04,938.305 2582.62,938.305C2570.99,938.305 2567,927.607 2573.86,914.79C2580.38,902.625 2598.98,903.517 2601.38,916.116ZM2287.61,936.186C2296.54,954.915 2293.46,965.632 2275.56,978.175C2258.96,989.798 2256.27,987.122 2259.23,962.036C2264.32,919.042 2274.86,909.448 2287.61,936.186ZM2152.71,941.561C2212.05,985.466 2211.49,1030.57 2151.82,1013.87C2109.68,1002.07 2086.2,957.218 2107.94,930.047C2115.83,920.174 2128.06,923.322 2152.71,941.561ZM2536.16,928.164C2536.16,930.372 2534.2,938.333 2531.8,945.86C2529.41,953.382 2526.18,967.246 2524.62,976.66C2519.68,1006.55 2484.5,1032.24 2476.62,1011.7C2471.96,999.533 2489.07,951.64 2503.1,937.606C2515.69,925.021 2536.16,919.169 2536.16,928.164ZM1940.78,956.307C1943.39,983.503 1928.3,993.615 1915.12,973.503C1904.59,957.435 1912.72,936.889 1928.71,939.164C1936.84,940.32 1939.62,944.265 1940.78,956.307ZM2676.04,948.163C2707.39,967.543 2702.51,993.936 2663.93,1013.62C2631.99,1029.92 2617.05,1025.88 2628.36,1004.01C2632.15,996.678 2635.25,980.313 2635.25,967.638C2635.25,934.586 2645.87,929.518 2676.04,948.163ZM2615.48,972.39C2616.37,977.094 2608.66,988.708 2597.18,999.962L2577.35,1019.4L2581.21,1053.18C2589.44,1125.33 2581.37,1146.9 2539.37,1165C2495.77,1183.78 2473.59,1170.81 2491.18,1136.8C2496.88,1125.77 2497.94,1115.17 2495.61,1092.42L2492.55,1062.53L2517.18,1041.76C2530.72,1030.33 2547.07,1011.99 2553.52,1001C2573.63,966.67 2611.11,949.366 2615.48,972.39ZM2361.41,1004.06C2374.28,1028.12 2363.73,1045.27 2307.96,1090.94C2280.14,1113.73 2271.92,1111.51 2271.94,1081.2C2271.95,1028.32 2342.05,967.888 2361.41,1004.06ZM2766.51,1022.08C2768.51,1036.1 2754.11,1042.04 2745.77,1030.63C2737.61,1019.48 2742.63,1008.25 2754.99,1010.02C2761.22,1010.91 2765.58,1015.46 2766.51,1022.08ZM1877.96,1026.14C1917.19,1041.84 1927.48,1054.49 1927.48,1087.01C1927.48,1140.41 1897.07,1134.82 1868.04,1076.07C1857.41,1054.56 1846.26,1034.51 1843.27,1031.52C1824.4,1012.65 1838.73,1010.43 1877.96,1026.14ZM2009.92,1062.76C2025.1,1078.03 2036.09,1094.14 2039.72,1106.45C2047.02,1131.12 2050.66,1133.96 2087.33,1143.44C2128,1153.97 2137.91,1161.49 2148.52,1189.92C2162.09,1226.31 2145.95,1240.99 2121.27,1214.72C2115.35,1208.42 2084.25,1190.22 2052.16,1174.26C1974.92,1135.86 1965.23,1126.68 1965.23,1091.99C1965.23,1077.37 1962.06,1057.82 1958.18,1048.55C1943.89,1014.35 1968.54,1021.12 2009.92,1062.76ZM1824.73,1036.22C1844.7,1059 1853.04,1090.81 1840.32,1095.69C1823.65,1102.08 1789.71,1054.24 1797.14,1034.85C1800.76,1025.43 1815.94,1026.19 1824.73,1036.22ZM2081.48,1044.8C2191.32,1076.64 2243.62,1126.38 2243.62,1199.03C2243.62,1280.86 2224.89,1273.64 2194.28,1180C2180.19,1136.89 2154.05,1117.62 2109.63,1117.62C2091.19,1117.62 2076.09,1108.75 2066.81,1092.45C2062.13,1084.23 2050.91,1069.74 2041.89,1060.24C2014.08,1030.97 2022.46,1027.7 2081.48,1044.8ZM2712.6,1040.15C2723.24,1067.87 2712.74,1083.3 2672.99,1098.35C2640.66,1110.6 2631.96,1110.69 2628.19,1098.82C2619.3,1070.81 2702.24,1013.15 2712.6,1040.15ZM2805.11,1062.89C2805.11,1071.08 2801.5,1075.42 2792.14,1078.52C2765.45,1087.33 2752.15,1073.6 2773.13,1058.91C2789.62,1047.35 2805.11,1049.29 2805.11,1062.89ZM2450.28,1085.54C2474.79,1110.04 2426.86,1175.63 2375.01,1188.55C2362.09,1191.76 2347.64,1199.66 2339.92,1207.73C2332.7,1215.27 2322.93,1221.44 2318.23,1221.44C2290.29,1221.44 2340.96,1116.58 2375.73,1102.44C2431.54,1079.76 2442.11,1077.36 2450.28,1085.54ZM1762.33,1113.14C1762.33,1122.02 1793.07,1136.47 1812,1136.48C1842.57,1136.51 1866.43,1160.21 1855.98,1180.15C1845.07,1200.98 1769.15,1180.29 1749.53,1151.14C1739.41,1136.1 1735.06,1108.73 1741.72,1102.06C1745.61,1098.17 1762.33,1107.16 1762.33,1113.14ZM2758.01,1115.36C2778.07,1139.54 2738.95,1175.44 2694.9,1173.27C2636.35,1170.39 2647.64,1128.63 2710.74,1114.7C2745.86,1106.96 2751.09,1107.03 2758.01,1115.36ZM2849.39,1115.54C2854.5,1128.87 2834.15,1159.25 2806.26,1179.91C2791.36,1190.96 2770.05,1207.82 2758.91,1217.38C2737.05,1236.16 2653.92,1271.38 2642.15,1266.86C2611.25,1255 2674.87,1198.03 2719.15,1197.89C2750.9,1197.8 2766.65,1186.58 2781.72,1153.33C2799.39,1114.35 2840.19,1091.57 2849.39,1115.54ZM1713.29,1161.05C1717.58,1169.36 1738.1,1192.85 1758.88,1213.25C1801.05,1254.64 1802.15,1262.87 1764.37,1254.4C1709.21,1242.04 1656.86,1151.24 1702.05,1146.31C1703.93,1146.11 1708.99,1152.74 1713.29,1161.05ZM1964.39,1165.64C2003.95,1178.38 2021.76,1196.6 2034.9,1237.76C2049.35,1283.02 2045.22,1289.75 2005.48,1285.68C1919.79,1276.9 1894.45,1252.04 1894.45,1176.77C1894.45,1147.42 1903.39,1146 1964.39,1165.64ZM2897.12,1171.89C2897.12,1183.89 2893.96,1187.64 2876.33,1196.54C2864.89,1202.31 2851.09,1211.02 2845.66,1215.89C2831.49,1228.61 2823.99,1232.21 2823.99,1226.28C2823.99,1223.44 2831.05,1216.95 2839.69,1211.86C2849.68,1205.96 2859.44,1193.94 2866.54,1178.77C2879.82,1150.43 2897.12,1146.53 2897.12,1171.89ZM2621.33,1184.13C2633.32,1206.53 2616.1,1225.83 2577.94,1232.73C2568.49,1234.44 2552.8,1242.16 2543.09,1249.88C2522.95,1265.88 2516.35,1267.02 2505.66,1256.34C2488.68,1239.35 2506.61,1217.67 2558.23,1192.83C2601.18,1172.15 2613.97,1170.38 2621.33,1184.13ZM1674.58,1213.18C1678.34,1219.03 1685.98,1238.07 1691.57,1255.51C1709.12,1310.36 1694.51,1321.44 1654.35,1283.73C1628.23,1259.2 1626.19,1252.5 1637.88,1229.46C1653.2,1199.3 1662.88,1195 1674.58,1213.18ZM2441.63,1216.41C2448.76,1229.76 2447.58,1271.73 2439.64,1287.11C2431.36,1303.12 2410.64,1313.58 2370.4,1322.07C2336.46,1329.23 2316.17,1338.58 2303.04,1353.09C2289.96,1367.54 2276.81,1366.06 2275.93,1350.03C2273.27,1301.47 2291.64,1271.18 2333.82,1254.57C2342.6,1251.11 2357.4,1241.09 2366.7,1232.3C2392.84,1207.61 2432.42,1199.22 2441.63,1216.41ZM2934.6,1217.77C2962.61,1257.77 2924.03,1315.32 2852.98,1339.52C2796.24,1358.83 2793.65,1340.37 2847.57,1301.02C2876.8,1279.69 2882.98,1272.4 2897.61,1241.98C2915.18,1205.43 2922.57,1200.6 2934.6,1217.77ZM1868.57,1264.04C1887.34,1294.93 1908.68,1308.17 1948.71,1313.74C1979.96,1318.09 1988.36,1323.01 1996.07,1341.47C1999.62,1349.97 2009.85,1363.35 2018.81,1371.22C2038.84,1388.8 2045.44,1400.66 2045.44,1419.02C2045.44,1426.81 2047.62,1438.91 2050.29,1445.92C2055.08,1458.53 2054.95,1458.63 2038.32,1455.94C2013.75,1451.95 1997.71,1438.16 1981.7,1407.25C1964.93,1374.87 1948.09,1362.28 1910.41,1353.91C1859.86,1342.69 1842.55,1325.48 1842.55,1286.45C1842.55,1277.91 1840.49,1263.74 1837.97,1254.95C1828.13,1220.66 1845.33,1225.76 1868.57,1264.04ZM2137.08,1261.87C2172.97,1281.6 2191.09,1300.8 2210.94,1340.11C2229.79,1377.46 2227.27,1384.06 2195.57,1380.3C2142.06,1373.97 2114.67,1350.24 2104.13,1301.11C2090.93,1239.54 2092.68,1237.46 2137.08,1261.87ZM2832.28,1272.22C2837.06,1286.69 2766.79,1303.67 2741.8,1294.08C2729.07,1289.2 2733.54,1279.41 2752.03,1271.64C2773.37,1262.67 2829.25,1263.07 2832.28,1272.22ZM1771.94,1287.62C1779.32,1292.88 1791.91,1311.07 1799.94,1328.07C1816.37,1362.84 1832.56,1373.36 1879.06,1379.5C1905.37,1382.97 1933.55,1398.55 1935.93,1410.95C1938.05,1421.92 1925.87,1424.7 1898.48,1419.51C1885.17,1416.99 1864.93,1414.92 1853.48,1414.92C1830.94,1414.92 1818.72,1405.95 1804.25,1378.77C1798.48,1367.93 1791.4,1363.13 1775.09,1359.03C1745.55,1351.59 1720.25,1314.86 1726.78,1288.87C1730.3,1274.82 1753.08,1274.19 1771.94,1287.62ZM2571.11,1304.02C2570.79,1317.83 2563.82,1334.62 2545.16,1366.56C2513.61,1420.57 2509.79,1427.99 2504.78,1445.11C2497.63,1469.51 2476.38,1479.28 2389.89,1497.96C2330.14,1510.85 2312.19,1504.89 2306.58,1470.28C2302.82,1447.11 2311.25,1425.74 2334.54,1399.47C2355.07,1376.29 2364.14,1371.74 2441.79,1345.57C2461.25,1339.01 2482.61,1331.67 2489.25,1329.26C2495.89,1326.84 2512.87,1315.34 2527,1303.71C2559.36,1277.04 2571.73,1277.13 2571.11,1304.02ZM1627.44,1307.56C1636.65,1321.79 1642.54,1374.83 1635.39,1379.25C1628.02,1383.8 1598.35,1364.69 1594.64,1353C1589.36,1336.33 1604.41,1296.94 1616.06,1296.94C1618.54,1296.94 1623.66,1301.72 1627.44,1307.56ZM2765.17,1325.53C2782.97,1354.34 2728.19,1397.44 2660.53,1407.85C2639.54,1411.08 2629.57,1419.65 2609.88,1451.4C2582.34,1495.8 2558.86,1483.03 2571.88,1430.73C2590.35,1356.56 2638.58,1322.18 2725.8,1321.02C2746.73,1320.74 2763.39,1322.65 2765.17,1325.53ZM1719.87,1351.21C1730.74,1360.3 1744.84,1367.73 1751.2,1367.73C1774.78,1367.73 1798.36,1409.14 1779,1416.57C1757.68,1424.75 1693.73,1392.97 1683.83,1369.26C1669.66,1335.35 1689.18,1325.57 1719.87,1351.21ZM2069.95,1354.48C2104.18,1397.88 2118.23,1408.52 2152.46,1416.91C2233.11,1436.67 2249.13,1458.87 2250.29,1552.47C2251.12,1619.97 2251.19,1620.36 2270.96,1670.99C2297.92,1739.99 2296.41,1782.07 2264.73,1844.58C2234.68,1903.88 2224.92,1897.72 2224.81,1819.42C2224.73,1751.23 2220.75,1740.59 2182.91,1707.28C2137.55,1667.35 2132.54,1646.71 2146.9,1559.08C2152.15,1527.04 2152.59,1512.29 2148.75,1498.01C2143.91,1480.06 2138.29,1473.43 2093.72,1433.17C2082.41,1422.95 2073.38,1409.8 2071.36,1400.62C2069.37,1391.55 2059.34,1376.83 2046.94,1364.77C2025.05,1343.51 2023.93,1334.7 2043.1,1334.7C2050.68,1334.7 2059.43,1341.14 2069.95,1354.48ZM2904.15,1364.19C2904.03,1380.3 2844.89,1431.51 2811.51,1444.41C2771.73,1459.79 2768.85,1460.05 2765.2,1448.57C2755.75,1418.8 2788.41,1392.09 2861.73,1369.64C2903.91,1356.72 2904.21,1356.68 2904.15,1364.19ZM3002.33,1391.57C3004.26,1408.11 2992.78,1416.53 2954.59,1426.56C2903.18,1440.07 2899.41,1423.07 2947.17,1393.1C2978.48,1373.46 3000.15,1372.85 3002.33,1391.57ZM1638.54,1416.08C1651.74,1422.57 1653.11,1424.67 1667.75,1461.06C1675.73,1480.87 1677.5,1493.91 1676.41,1524.77L1675.04,1563.56L1656.17,1562.4C1617.25,1560.01 1596.61,1532.43 1606.08,1495.47C1611.74,1473.4 1611.44,1469.9 1602.35,1452.47C1580.37,1410.28 1595.59,1394.98 1638.54,1416.08ZM1748.5,1441.32C1801.88,1456.98 1819.05,1472.06 1818.88,1503.16C1818.72,1532.47 1799.81,1535.52 1784.02,1508.79C1778.54,1499.51 1766.45,1490.16 1751.15,1483.34C1691.85,1456.94 1689.79,1424.09 1748.5,1441.32ZM1911.35,1450.37C1924.11,1456.89 1956.85,1468.7 1984.1,1476.61C2037.07,1491.98 2068.84,1507.77 2080.61,1524.58C2094.73,1544.74 2087.64,1611.9 2069.89,1626.09C2058.92,1634.86 2057.85,1634.3 2028.09,1604.2C2003.47,1579.29 1997.68,1575.85 1972.3,1571.06C1882.82,1554.16 1871.08,1545.09 1862,1485.76C1854.04,1433.73 1864.32,1426.35 1911.35,1450.37ZM2719.14,1462.11C2721.49,1500.13 2708.95,1515.02 2654.12,1539.32C2622.16,1553.48 2615.27,1548.88 2632.09,1524.61C2638.97,1514.67 2647.79,1495.82 2651.68,1482.73C2666.04,1434.35 2716.46,1418.93 2719.14,1462.11ZM3012.33,1457.04C3033.48,1470.44 3010.84,1520.98 2976.09,1537.93C2962.43,1544.59 2944.08,1557 2935.3,1565.5C2910.62,1589.43 2901.84,1584.55 2901.86,1546.94C2901.9,1494.27 2911.51,1481.84 2967.66,1461.85C2995.2,1452.04 3003.08,1451.19 3012.33,1457.04ZM2846.63,1477.21C2857.02,1487.6 2853.73,1547.58 2841.49,1570.71C2824.72,1602.43 2773.39,1621.16 2714.76,1616.95C2684.07,1614.74 2682.45,1592.84 2711.28,1569.95C2722.24,1561.25 2746.24,1540.03 2764.62,1522.8C2813.05,1477.39 2834.75,1465.33 2846.63,1477.21ZM1743.46,1505.91C1747.35,1509.07 1758.56,1521.64 1768.36,1533.84C1794.91,1566.89 1809.33,1575.03 1859.11,1585.05C1929.03,1599.11 1938.55,1609.87 1943.15,1679.99C1946.85,1736.24 1947.81,1735.68 1869.75,1722.53C1771.61,1705.99 1751.54,1689.65 1746.93,1622.48C1744.64,1589.02 1742.08,1580.39 1727.37,1556.55C1708.53,1526.03 1707,1518.12 1717.84,1507.27C1726.65,1498.47 1733.83,1498.09 1743.46,1505.91ZM2558.05,1539.98C2564.89,1557.81 2502.03,1658.17 2475.63,1671.55C2454.45,1682.29 2373.66,1699.74 2360.45,1696.43C2339.7,1691.22 2309.85,1627.15 2316.26,1601.59C2323.36,1573.3 2379.69,1551.95 2472.72,1542.3C2498.15,1539.66 2520,1536.47 2521.27,1535.2C2526.85,1529.62 2555.5,1533.34 2558.05,1539.98ZM3002.41,1588.99C3005.41,1630.92 2990.43,1646.75 2937.14,1657.96C2883.09,1669.33 2862.17,1684.99 2852.37,1721.39C2844.28,1751.41 2826.09,1763.53 2770.98,1775.61C2701.79,1790.77 2691.82,1784.16 2699.85,1728.41C2708.65,1667.36 2717.5,1661.39 2821.57,1646.32C2897.92,1635.27 2927.78,1623 2959.08,1589.83C2988.13,1559.05 3000.25,1558.82 3002.41,1588.99ZM1622.78,1595.35C1664.13,1610.42 1687.61,1635.44 1698.63,1676.17C1713.75,1732 1676.51,1738.39 1630.07,1687.94C1614.47,1671.01 1602.4,1662.82 1585.48,1657.74C1557.46,1649.3 1554.89,1645.74 1554.79,1615.24C1554.67,1576.32 1563.51,1573.73 1622.78,1595.35ZM2632.06,1624.91C2631.6,1637.89 2630.36,1678.24 2629.3,1714.57C2627.14,1788.7 2623.31,1802.5 2601.16,1816.01C2571.83,1833.89 2557.02,1827.82 2565.16,1801.27C2569.23,1788.03 2568.3,1778.66 2560.24,1751.61C2540.49,1685.26 2550.7,1640.57 2591.82,1613.48C2623.8,1592.42 2633.11,1595.06 2632.06,1624.91ZM2016,1657.94C2026.7,1672.75 2043.18,1683.94 2092.47,1709.85C2169.41,1750.3 2174.97,1757.43 2170.87,1810.37C2166.28,1869.6 2157.74,1874.89 2097.2,1855.91C2007.72,1827.86 1988.82,1799.92 1988.82,1695.73C1988.82,1628.54 1991.79,1624.42 2016,1657.94ZM3012.72,1693.61C3012.72,1698.96 3006.42,1711.17 2998.71,1720.76C2991.01,1730.35 2980.36,1750.82 2975.06,1766.24C2962.67,1802.25 2953.47,1816.03 2941.84,1816.03C2929.65,1816.03 2930.07,1810.11 2943.96,1786.2C2950.25,1775.35 2956.74,1757.99 2958.38,1747.6C2963.9,1712.71 2965.3,1709.01 2977.88,1696.44C2993.3,1681.01 3012.72,1679.44 3012.72,1693.61ZM1599.68,1707.64C1607.73,1716.54 1607.79,1717.78 1600.58,1724.99C1589.37,1736.2 1568.88,1726.48 1568.88,1709.95C1568.88,1694.83 1586.86,1693.48 1599.68,1707.64ZM2931.65,1730.27C2932.9,1743.21 2930.09,1748.77 2915.29,1762.74C2905.01,1772.43 2894.35,1788.75 2890.19,1801.15C2880.75,1829.3 2857.38,1841.48 2793.32,1851.61C2726.97,1862.11 2721.57,1866.02 2675.98,1936.36C2653.22,1971.49 2631.03,1981.19 2573.43,1981.19C2518.14,1981.19 2505.85,1974.71 2506.93,1946.12C2508.61,1901.44 2540.78,1874.1 2606.94,1861.14C2626.4,1857.32 2660.26,1847.68 2682.17,1839.7C2704.08,1831.72 2747.87,1821.05 2779.47,1815.98C2843.72,1805.67 2847.7,1804.53 2871.7,1789.59C2885.25,1781.15 2889.91,1774.31 2894.42,1756.21C2905.32,1712.49 2928.4,1696.41 2931.65,1730.27ZM2511.1,1744.2C2520.1,1778.61 2516.11,1792.04 2490.31,1814.28C2457.77,1842.31 2447.93,1859.55 2437.69,1906.44C2424.85,1965.17 2405.75,1990.4 2352.77,2018.63C2318.09,2037.11 2304.02,1950.42 2330.78,1883.17C2339.79,1860.51 2351.68,1826.18 2357.2,1806.86C2370.23,1761.28 2382.7,1749.43 2431.1,1736.63C2494.24,1719.95 2505.02,1720.97 2511.1,1744.2ZM1840.78,1761.38C1916.97,1771.31 1951.07,1788.41 1951.07,1816.68C1951.07,1837.16 1941.6,1839.1 1859.6,1835.51C1774.73,1831.79 1772.29,1830.62 1755.16,1785.75C1744.87,1758.81 1751,1747.71 1773.83,1751.89C1781.78,1753.35 1811.91,1757.62 1840.78,1761.38ZM1690.7,1764.26C1716.47,1779.98 1709.55,1789.99 1672.61,1790.47C1655.78,1790.69 1633.15,1792.44 1622.31,1794.36C1591.55,1799.83 1569.94,1780.86 1588.95,1765.08C1603.83,1752.73 1670.9,1752.19 1690.7,1764.26ZM1720.38,1840.91C1770.78,1881.73 1764.84,1879.12 1813.83,1882.07C1867.27,1885.29 1880.7,1892.32 1903.15,1928.82C1923.01,1961.1 1933.13,1969.15 1964.89,1977.99C1997.71,1987.11 2013.64,2003.46 2011.46,2025.77C2007.47,2066.63 1892.4,2024.13 1864.27,1971.41C1839.22,1924.45 1836.97,1923.13 1769,1915.23C1704.63,1907.76 1689.87,1903.2 1670.25,1884.68C1660.9,1875.87 1644.35,1865.84 1633.48,1862.4C1609.5,1854.81 1604.85,1835.61 1625.5,1829.45C1653.31,1821.17 1703.48,1827.22 1720.38,1840.91ZM2045.44,1889.81C2128.26,1904.31 2158.4,1928.31 2182.79,1999.21C2198.72,2045.52 2197.7,2047.3 2155.14,2046.99C2098.44,2046.58 2088.59,2041.5 2069.03,2002.63C2050.05,1964.9 2037.05,1955.24 1995.41,1947.92C1946.48,1939.33 1927.48,1923.9 1927.48,1892.79C1927.48,1875.12 1957.16,1874.37 2045.44,1889.81ZM2887.31,1909.59C2940.77,1918.76 2942.52,1920.56 2923.5,1946.81C2870.41,2020.12 2694.02,2038.98 2720.44,1968.52C2743.95,1905.84 2783.68,1891.81 2887.31,1909.59ZM1748.3,1943.46C1790.8,1951.52 1823.98,1987.26 1803.12,2002.51C1790.73,2011.57 1717.63,2015.93 1702.19,2008.53C1687.99,2001.72 1658.53,1960.22 1658.53,1947.03C1658.53,1937.16 1705.29,1935.3 1748.3,1943.46ZM2555.11,2042.88C2598.92,2055.02 2628.99,2071.12 2652.15,2094.85C2672.32,2115.51 2670.73,2122.53 2647.77,2114.23C2639.22,2111.13 2612.08,2108.6 2587.48,2108.6C2545.24,2108.6 2540.64,2107.59 2505.24,2090.48C2484.62,2080.51 2459.78,2069.72 2450.05,2066.51C2389.06,2046.41 2487.74,2024.2 2555.11,2042.88ZM1881.76,2047.24C1925.47,2056.62 1949.13,2086.65 1927.94,2105.82C1915.1,2117.45 1854.61,2136.92 1831.34,2136.92C1803.46,2136.92 1723.25,2060.81 1736.86,2047.28C1745.89,2038.29 1839.96,2038.27 1881.76,2047.24ZM2829.56,2060.38C2841.45,2072.27 2813.56,2090.94 2787.88,2088.3C2760.09,2085.43 2724.9,2068.2 2724.9,2057.47C2724.9,2049.67 2821.53,2052.35 2829.56,2060.38ZM2178.77,2105.44C2240.73,2135.85 2253.34,2200.91 2207.61,2254.33C2162.8,2306.69 2096.09,2301.4 1961.51,2234.79C1871.04,2190.02 1864.75,2179.91 1916.91,2163.03C1930.55,2158.62 1952.68,2147.47 1966.06,2138.26C2038.11,2088.69 2119.16,2076.19 2178.77,2105.44ZM2488.22,2141.22C2522.6,2152.78 2539.19,2155.36 2592.8,2157.48C2720.92,2162.53 2728.72,2181.41 2624.04,2233.04C2470.75,2308.63 2395.06,2308.82 2360.94,2233.7C2324.01,2152.4 2386.48,2107.01 2488.22,2141.22Z" style="fill:rgb(13,123,60);"/>
                </g>
                <g transform="matrix(1,0,0,1,-129.91,-381.518)">
                    <g transform="matrix(12.8331,0,0,12.8331,870.846,1449.26)">
                        <path d="M0,-2.105C0.517,-3.771 2.072,-4.985 3.905,-4.985C5.739,-4.985 7.294,-3.771 7.811,-2.105L0,-2.105ZM12.976,-0.898C12.976,-6.098 8.598,-10.277 3.327,-9.95C-1.19,-9.669 -4.867,-5.994 -5.147,-1.477C-5.475,3.795 -1.296,8.172 3.905,8.172C3.975,8.172 4.043,8.169 4.112,8.168L4.112,8.172L4.702,8.172C6.064,8.172 7.168,7.068 7.168,5.706L7.168,3.204L4.702,3.204C4.443,3.205 4.187,3.19 3.905,3.19C2.59,3.19 1.421,2.563 0.673,1.595L12.979,1.595L12.976,-0.898Z" style="fill:rgb(2,65,104);fill-rule:nonzero;"/>
                    </g>
                    <g transform="matrix(12.8331,0,0,12.8331,1603.55,1554.14)">
                        <path d="M0,-18.141C-5.009,-18.141 -9.07,-14.079 -9.07,-9.071C-9.07,-4.061 -5.009,0 0,0C5.009,0 9.07,-4.061 9.07,-9.071C9.07,-14.079 5.009,-18.141 0,-18.141M0,-13.158C2.254,-13.158 4.087,-11.325 4.087,-9.071C4.087,-6.817 2.254,-4.983 0,-4.983C-2.254,-4.983 -4.087,-6.817 -4.087,-9.071C-4.087,-11.325 -2.254,-13.158 0,-13.158" style="fill:rgb(2,65,104);fill-rule:nonzero;"/>
                    </g>
                    <g transform="matrix(12.8331,0,0,12.8331,691.365,1321.34)">
                        <path d="M0,17.268L6.483,0L2.688,0C1.77,0 0.947,0.57 0.624,1.43L-2.661,10.179L-6.482,0L-11.805,0L-5.322,17.268L0,17.268Z" style="fill:rgb(2,65,104);fill-rule:nonzero;"/>
                    </g>
                    <g transform="matrix(12.8331,0,0,12.8331,1128.63,1524.63)">
                        <path d="M0,-14.354C-0.386,-15.23 -1.261,-15.841 -2.279,-15.841L-4.771,-15.841L-4.771,1.487L0.212,1.487L0.212,-5.89C0.212,-8.601 2.41,-10.799 5.121,-10.799L5.121,-15.782C3.247,-15.782 1.494,-15.26 0,-14.354" style="fill:rgb(2,65,104);fill-rule:nonzero;"/>
                    </g>
                    <g transform="matrix(12.8331,0,0,12.8331,-3790.65,-7190.98)">
                        <g transform="matrix(1,0,0,1,399.856,668.292)">
                            <path d="M0,8.174C-2.254,8.174 -4.087,6.341 -4.087,4.087C-4.087,1.833 -2.254,-0.001 0,-0.001C2.253,-0.001 4.087,1.833 4.087,4.087C4.087,6.341 2.253,8.174 0,8.174M9.071,4.087L9.071,-4.56L6.579,-4.56C5.819,-4.56 5.139,-4.219 4.682,-3.682C3.316,-4.508 1.713,-4.983 0,-4.983C-5.009,-4.983 -9.07,-0.923 -9.07,4.087C-9.07,9.096 -5.009,13.157 0,13.157C5.009,13.157 9.071,9.096 9.071,4.087" style="fill:rgb(2,65,104);fill-rule:nonzero;"/>
                        </g>
                        <g transform="matrix(1,0,0,1,399.856,685.955)">
                            <path d="M0,-0.896C-2.254,-0.896 -4.087,-2.729 -4.087,-4.983L-9.07,-4.983C-9.07,0.026 -5.009,4.087 0,4.087C5.009,4.087 9.071,0.026 9.071,-4.983L4.087,-4.983C4.087,-2.729 2.253,-0.896 0,-0.896" style="fill:rgb(2,65,104);fill-rule:nonzero;"/>
                        </g>
                    </g>
                </g>
            </g>
        </g>
    </g>
</svg>
